<svg id="visual" viewBox="0 0 900 600" width="900" height="600" xmlns="http://www.w3.org/2000/svg" xmlns:xlink="http://www.w3.org/1999/xlink" version="1.1"><g stroke-width="1" stroke-linejoin="bevel"><path d="M469 319.9L539 321.9L529 239.1Z" fill="#103043" stroke="#103043"></path><path d="M529 239.1L456 244.1L469 319.9Z" fill="#00101c" stroke="#00101c"></path><path d="M529 239.1L450 210.4L456 244.1Z" fill="#133b50" stroke="#133b50"></path><path d="M368 327.9L445 403.6L469 319.9Z" fill="#113649" stroke="#113649"></path><path d="M539 321.9L590 244.1L529 239.1Z" fill="#133b50" stroke="#133b50"></path><path d="M529 239.1L519 147.4L450 210.4Z" fill="#051622" stroke="#051622"></path><path d="M368 327.9L469 319.9L456 244.1Z" fill="#144157" stroke="#144157"></path><path d="M469 319.9L445 403.6L539 321.9Z" fill="#051622" stroke="#051622"></path><path d="M590 244.1L519 147.4L529 239.1Z" fill="#0e2b3c" stroke="#0e2b3c"></path><path d="M334 248.1L368 327.9L456 244.1Z" fill="#113649" stroke="#113649"></path><path d="M567 443.6L615 381.9L539 321.9Z" fill="#0a202f" stroke="#0a202f"></path><path d="M539 321.9L615 381.9L590 244.1Z" fill="#133b50" stroke="#133b50"></path><path d="M456 89.7L395 184.4L450 210.4Z" fill="#15475e" stroke="#15475e"></path><path d="M450 210.4L395 184.4L456 244.1Z" fill="#081b28" stroke="#081b28"></path><path d="M697 325.9L626 191.4L590 244.1Z" fill="#103043" stroke="#103043"></path><path d="M590 244.1L626 191.4L519 147.4Z" fill="#0e2b3c" stroke="#0e2b3c"></path><path d="M445 403.6L567 443.6L539 321.9Z" fill="#00101c" stroke="#00101c"></path><path d="M395 184.4L334 248.1L456 244.1Z" fill="#0a202f" stroke="#0a202f"></path><path d="M708 421.6L697 325.9L615 381.9Z" fill="#103043" stroke="#103043"></path><path d="M615 381.9L697 325.9L590 244.1Z" fill="#103043" stroke="#103043"></path><path d="M519 147.4L456 89.7L450 210.4Z" fill="#133b50" stroke="#133b50"></path><path d="M264 203.4L269 284.1L334 248.1Z" fill="#0c2635" stroke="#0c2635"></path><path d="M510 62.7L456 89.7L519 147.4Z" fill="#00101c" stroke="#00101c"></path><path d="M368 327.9L376 460.6L445 403.6Z" fill="#051622" stroke="#051622"></path><path d="M485 547.3L574 519.3L567 443.6Z" fill="#0c2635" stroke="#0c2635"></path><path d="M251 377.9L376 460.6L368 327.9Z" fill="#0e2b3c" stroke="#0e2b3c"></path><path d="M650 63.7L510 62.7L519 147.4Z" fill="#0a202f" stroke="#0a202f"></path><path d="M619 481.3L660 449.6L567 443.6Z" fill="#0e2b3c" stroke="#0e2b3c"></path><path d="M567 443.6L660 449.6L615 381.9Z" fill="#15475e" stroke="#15475e"></path><path d="M574 519.3L619 481.3L567 443.6Z" fill="#051622" stroke="#051622"></path><path d="M264 203.4L334 248.1L395 184.4Z" fill="#15475e" stroke="#15475e"></path><path d="M334 248.1L269 284.1L368 327.9Z" fill="#0a202f" stroke="#0a202f"></path><path d="M815 322.9L742 249.1L697 325.9Z" fill="#081b28" stroke="#081b28"></path><path d="M697 325.9L742 249.1L626 191.4Z" fill="#0e2b3c" stroke="#0e2b3c"></path><path d="M626 191.4L650 63.7L519 147.4Z" fill="#0c2635" stroke="#0c2635"></path><path d="M770 430.6L708 421.6L688 533.3Z" fill="#0c2635" stroke="#0c2635"></path><path d="M485 547.3L567 443.6L445 403.6Z" fill="#00101c" stroke="#00101c"></path><path d="M708 421.6L660 449.6L688 533.3Z" fill="#0a202f" stroke="#0a202f"></path><path d="M660 449.6L708 421.6L615 381.9Z" fill="#0e2b3c" stroke="#0e2b3c"></path><path d="M450 0L340 99.7L456 89.7Z" fill="#051622" stroke="#051622"></path><path d="M456 89.7L340 99.7L395 184.4Z" fill="#15475e" stroke="#15475e"></path><path d="M742 249.1L740 190.4L626 191.4Z" fill="#103043" stroke="#103043"></path><path d="M340 99.7L264 203.4L395 184.4Z" fill="#0a202f" stroke="#0a202f"></path><path d="M743 111.7L650 63.7L626 191.4Z" fill="#103043" stroke="#103043"></path><path d="M376 460.6L485 547.3L445 403.6Z" fill="#081b28" stroke="#081b28"></path><path d="M202 375.9L251 377.9L269 284.1Z" fill="#133b50" stroke="#133b50"></path><path d="M269 284.1L251 377.9L368 327.9Z" fill="#0e2b3c" stroke="#0e2b3c"></path><path d="M376 460.6L424 600L485 547.3Z" fill="#144157" stroke="#144157"></path><path d="M243 442.6L330 492.3L376 460.6Z" fill="#081b28" stroke="#081b28"></path><path d="M590 0L548 0L510 62.7Z" fill="#0a202f" stroke="#0a202f"></path><path d="M510 62.7L450 0L456 89.7Z" fill="#103043" stroke="#103043"></path><path d="M548 0L450 0L510 62.7Z" fill="#081b28" stroke="#081b28"></path><path d="M740 190.4L743 111.7L626 191.4Z" fill="#144157" stroke="#144157"></path><path d="M650 63.7L590 0L510 62.7Z" fill="#144157" stroke="#144157"></path><path d="M795 70.7L743 111.7L848 172.4Z" fill="#051622" stroke="#051622"></path><path d="M692 0L590 0L650 63.7Z" fill="#0c2635" stroke="#0c2635"></path><path d="M688 533.3L660 449.6L619 481.3Z" fill="#00101c" stroke="#00101c"></path><path d="M708 421.6L770 430.6L697 325.9Z" fill="#0e2b3c" stroke="#0e2b3c"></path><path d="M742 249.1L832 275.1L740 190.4Z" fill="#0c2635" stroke="#0c2635"></path><path d="M202 375.9L243 442.6L251 377.9Z" fill="#113649" stroke="#113649"></path><path d="M251 377.9L243 442.6L376 460.6Z" fill="#081b28" stroke="#081b28"></path><path d="M614 600L688 533.3L574 519.3Z" fill="#081b28" stroke="#081b28"></path><path d="M574 519.3L688 533.3L619 481.3Z" fill="#051622" stroke="#051622"></path><path d="M770 430.6L815 322.9L697 325.9Z" fill="#113649" stroke="#113649"></path><path d="M157 234.1L202 375.9L269 284.1Z" fill="#0c2635" stroke="#0c2635"></path><path d="M269 0L251 88.7L340 99.7Z" fill="#0e2b3c" stroke="#0e2b3c"></path><path d="M340 99.7L251 88.7L264 203.4Z" fill="#144157" stroke="#144157"></path><path d="M264 203.4L157 234.1L269 284.1Z" fill="#144157" stroke="#144157"></path><path d="M424 600L576 600L485 547.3Z" fill="#081b28" stroke="#081b28"></path><path d="M485 547.3L576 600L574 519.3Z" fill="#113649" stroke="#113649"></path><path d="M369 600L376 460.6L330 492.3Z" fill="#113649" stroke="#113649"></path><path d="M369 600L424 600L376 460.6Z" fill="#0e2b3c" stroke="#0e2b3c"></path><path d="M815 322.9L832 275.1L742 249.1Z" fill="#144157" stroke="#144157"></path><path d="M450 0L334 0L340 99.7Z" fill="#051622" stroke="#051622"></path><path d="M251 88.7L195 164.4L264 203.4Z" fill="#133b50" stroke="#133b50"></path><path d="M576 600L614 600L574 519.3Z" fill="#081b28" stroke="#081b28"></path><path d="M795 70.7L692 0L743 111.7Z" fill="#133b50" stroke="#133b50"></path><path d="M743 111.7L692 0L650 63.7Z" fill="#15475e" stroke="#15475e"></path><path d="M243 442.6L273 535.3L330 492.3Z" fill="#081b28" stroke="#081b28"></path><path d="M187 447.6L273 535.3L243 442.6Z" fill="#144157" stroke="#144157"></path><path d="M273 535.3L369 600L330 492.3Z" fill="#103043" stroke="#103043"></path><path d="M195 164.4L157 234.1L264 203.4Z" fill="#00101c" stroke="#00101c"></path><path d="M96 436.6L187 447.6L202 375.9Z" fill="#133b50" stroke="#133b50"></path><path d="M202 375.9L187 447.6L243 442.6Z" fill="#133b50" stroke="#133b50"></path><path d="M848 172.4L743 111.7L740 190.4Z" fill="#0c2635" stroke="#0c2635"></path><path d="M832 275.1L848 172.4L740 190.4Z" fill="#113649" stroke="#113649"></path><path d="M614 600L689 600L688 533.3Z" fill="#0e2b3c" stroke="#0e2b3c"></path><path d="M688 533.3L798 519.3L770 430.6Z" fill="#0e2b3c" stroke="#0e2b3c"></path><path d="M334 0L269 0L340 99.7Z" fill="#133b50" stroke="#133b50"></path><path d="M251 88.7L164 45.7L195 164.4Z" fill="#0e2b3c" stroke="#0e2b3c"></path><path d="M86 210.4L95 284.1L157 234.1Z" fill="#0a202f" stroke="#0a202f"></path><path d="M689 600L798 519.3L688 533.3Z" fill="#144157" stroke="#144157"></path><path d="M900 400.6L900 319.9L815 322.9Z" fill="#133b50" stroke="#133b50"></path><path d="M900 319.9L900 254.1L832 275.1Z" fill="#144157" stroke="#144157"></path><path d="M832 275.1L900 254.1L848 172.4Z" fill="#0a202f" stroke="#0a202f"></path><path d="M152 600L273 600L273 535.3Z" fill="#103043" stroke="#103043"></path><path d="M273 535.3L273 600L369 600Z" fill="#103043" stroke="#103043"></path><path d="M900 319.9L832 275.1L815 322.9Z" fill="#144157" stroke="#144157"></path><path d="M848 172.4L900 99.7L795 70.7Z" fill="#081b28" stroke="#081b28"></path><path d="M900 400.6L815 322.9L770 430.6Z" fill="#051622" stroke="#051622"></path><path d="M900 254.1L900 177.4L848 172.4Z" fill="#0a202f" stroke="#0a202f"></path><path d="M157 234.1L95 284.1L202 375.9Z" fill="#144157" stroke="#144157"></path><path d="M86 210.4L157 234.1L195 164.4Z" fill="#15475e" stroke="#15475e"></path><path d="M798 519.3L900 400.6L770 430.6Z" fill="#051622" stroke="#051622"></path><path d="M200 0L164 45.7L251 88.7Z" fill="#051622" stroke="#051622"></path><path d="M269 0L200 0L251 88.7Z" fill="#144157" stroke="#144157"></path><path d="M67 51.7L86 210.4L195 164.4Z" fill="#051622" stroke="#051622"></path><path d="M96 436.6L145 516.3L187 447.6Z" fill="#15475e" stroke="#15475e"></path><path d="M187 447.6L145 516.3L273 535.3Z" fill="#15475e" stroke="#15475e"></path><path d="M0 280.1L71 322.9L95 284.1Z" fill="#103043" stroke="#103043"></path><path d="M95 284.1L71 322.9L202 375.9Z" fill="#144157" stroke="#144157"></path><path d="M900 177.4L900 99.7L848 172.4Z" fill="#15475e" stroke="#15475e"></path><path d="M795 70.7L848 0L692 0Z" fill="#051622" stroke="#051622"></path><path d="M71 322.9L96 436.6L202 375.9Z" fill="#0e2b3c" stroke="#0e2b3c"></path><path d="M900 99.7L848 0L795 70.7Z" fill="#081b28" stroke="#081b28"></path><path d="M689 600L838 600L798 519.3Z" fill="#15475e" stroke="#15475e"></path><path d="M798 519.3L900 529.3L900 400.6Z" fill="#15475e" stroke="#15475e"></path><path d="M838 600L900 529.3L798 519.3Z" fill="#0a202f" stroke="#0a202f"></path><path d="M145 516.3L152 600L273 535.3Z" fill="#144157" stroke="#144157"></path><path d="M77 600L152 600L145 516.3Z" fill="#113649" stroke="#113649"></path><path d="M900 99.7L900 0L848 0Z" fill="#0a202f" stroke="#0a202f"></path><path d="M0 436.6L68 512.3L96 436.6Z" fill="#081b28" stroke="#081b28"></path><path d="M96 436.6L68 512.3L145 516.3Z" fill="#0c2635" stroke="#0c2635"></path><path d="M164 45.7L67 51.7L195 164.4Z" fill="#103043" stroke="#103043"></path><path d="M86 210.4L0 280.1L95 284.1Z" fill="#0c2635" stroke="#0c2635"></path><path d="M71 322.9L0 338.9L96 436.6Z" fill="#113649" stroke="#113649"></path><path d="M91 0L67 51.7L164 45.7Z" fill="#15475e" stroke="#15475e"></path><path d="M200 0L91 0L164 45.7Z" fill="#081b28" stroke="#081b28"></path><path d="M0 151.4L0 280.1L86 210.4Z" fill="#0a202f" stroke="#0a202f"></path><path d="M838 600L900 600L900 529.3Z" fill="#113649" stroke="#113649"></path><path d="M0 280.1L0 338.9L71 322.9Z" fill="#144157" stroke="#144157"></path><path d="M67 51.7L0 151.4L86 210.4Z" fill="#051622" stroke="#051622"></path><path d="M0 57.7L0 151.4L67 51.7Z" fill="#0e2b3c" stroke="#0e2b3c"></path><path d="M0 338.9L0 436.6L96 436.6Z" fill="#0c2635" stroke="#0c2635"></path><path d="M68 512.3L77 600L145 516.3Z" fill="#081b28" stroke="#081b28"></path><path d="M0 600L77 600L68 512.3Z" fill="#00101c" stroke="#00101c"></path><path d="M0 436.6L0 497.3L68 512.3Z" fill="#133b50" stroke="#133b50"></path><path d="M0 0L0 57.7L67 51.7Z" fill="#0c2635" stroke="#0c2635"></path><path d="M91 0L0 0L67 51.7Z" fill="#051622" stroke="#051622"></path><path d="M0 497.3L0 600L68 512.3Z" fill="#133b50" stroke="#133b50"></path></g></svg>